<svg width="284" height="62" viewBox="0 0 284 62" fill="none" xmlns="http://www.w3.org/2000/svg">
<path d="M5.34 56H0.84L17.1 15.8H23.22L39.48 56H34.86L30 44.24H10.14L5.34 56ZM17.58 26L11.7 40.34H28.38L22.5 26L20.22 19.88H19.92L17.58 26ZM47.1666 22.4H42.9066V15.8H47.1666V22.4ZM47.1666 56H42.9066V26H47.1666V56ZM58.012 56H53.692V26H57.592V30.98H57.892C58.852 28.22 61.732 25.76 66.112 25.76C72.232 25.76 74.572 30.14 74.572 35.24V36.92H70.252V35.9C70.252 31.28 68.812 29.48 64.552 29.48C59.932 29.48 58.012 31.58 58.012 36.38V56ZM95.3733 56H91.1133V19.7H76.8933V15.8H109.653V19.7H95.3733V56ZM122.543 56.6C113.423 56.6 108.683 50.18 108.683 41.18C108.683 32.18 114.023 25.76 122.483 25.76C129.623 25.76 135.503 30.08 135.503 38.84C135.503 40.22 135.383 41.54 135.203 42.38H112.763C112.943 48.92 115.523 52.76 122.603 52.76C128.603 52.76 131.003 50.06 131.003 46.46V46.1H135.263V46.52C135.263 52.22 130.103 56.6 122.543 56.6ZM122.363 29.48C115.763 29.48 113.123 33.26 112.763 39.26H131.423C131.663 32.24 128.183 29.48 122.363 29.48ZM154.188 56.66C145.428 56.66 140.148 50.24 140.148 41.24C140.148 32.18 145.428 25.76 154.188 25.76C161.748 25.76 166.848 30.62 166.848 37.58V38H162.588V37.64C162.588 32.48 159.828 29.66 154.008 29.66C147.228 29.66 144.408 33.92 144.408 41.24C144.408 48.5 147.228 52.76 154.008 52.76C159.828 52.76 162.588 49.94 162.588 44.78V44.42H166.848V44.84C166.848 51.8 161.748 56.66 154.188 56.66ZM177.577 56H173.317V30.08H168.937V26.36H173.317V25.22C173.317 19.1 176.737 15.8 183.277 15.8H185.917V19.34H182.497C179.077 19.34 177.517 20.78 177.517 23.78V26.36H185.917V30.08H177.577V56ZM193.357 22.4H189.097V15.8H193.357V22.4ZM193.357 56H189.097V26H193.357V56ZM213.878 56H208.538L196.418 26.36H201.098L211.118 51.8H211.418L221.378 26.36H225.998L213.878 56ZM240.961 56.6C231.841 56.6 227.101 50.18 227.101 41.18C227.101 32.18 232.441 25.76 240.901 25.76C248.041 25.76 253.921 30.08 253.921 38.84C253.921 40.22 253.801 41.54 253.621 42.38H231.181C231.361 48.92 233.941 52.76 241.021 52.76C247.021 52.76 249.421 50.06 249.421 46.46V46.1H253.681V46.52C253.681 52.22 248.521 56.6 240.961 56.6ZM240.781 29.48C234.181 29.48 231.541 33.26 231.181 39.26H249.841C250.081 32.24 246.601 29.48 240.781 29.48Z" fill="#303030"/>
<path fill-rule="evenodd" clip-rule="evenodd" d="M279.443 4.8451L277.357 3.90844C277.201 3.83844 277.079 3.70568 277.017 3.54005L275.86 0.421892C275.651 -0.14063 274.891 -0.140631 274.683 0.42189L273.525 3.54005C273.464 3.70568 273.341 3.83844 273.185 3.90844L271.099 4.8451C270.589 5.07428 270.589 5.83238 271.099 6.06156L273.185 6.99822C273.341 7.06822 273.464 7.20098 273.525 7.36661L274.683 10.4848C274.891 11.0473 275.651 11.0473 275.86 10.4848L277.017 7.36661C277.079 7.20098 277.201 7.06822 277.357 6.99822L279.443 6.06156C279.953 5.83238 279.953 5.07428 279.443 4.8451ZM283.721 12.801L282.23 12.0981C282.114 12.0436 282.024 11.9426 281.98 11.8179L281.177 9.54719C281.025 9.11528 280.442 9.11528 280.289 9.54719L279.486 11.8179C279.442 11.9426 279.352 12.0436 279.237 12.0981L277.746 12.801C277.373 12.9766 277.373 13.5306 277.746 13.7062L279.237 14.4091C279.352 14.4636 279.442 14.5646 279.486 14.6893L280.289 16.96C280.442 17.3919 281.025 17.3919 281.177 16.96L281.98 14.6893C282.024 14.5646 282.114 14.4636 282.23 14.4091L283.721 13.7062C284.093 13.5306 284.093 12.9766 283.721 12.801Z" fill="#201F29" fill-opacity="0.2"/>
<path d="M272.556 17.0352L277.235 19.0271C277.887 19.3049 277.887 20.2787 277.235 20.5565L272.556 22.5483C272.362 22.6313 272.206 22.7935 272.126 22.9984L269.585 29.4899C269.319 30.17 268.405 30.17 268.139 29.4899L265.598 22.9984C265.518 22.7935 265.363 22.6313 265.168 22.5483L260.489 20.5565C259.837 20.2787 259.837 19.3049 260.489 19.0271L265.168 17.0352C265.363 16.9523 265.518 16.79 265.598 16.5852L268.139 10.0937C268.405 9.41358 269.319 9.41358 269.585 10.0937L272.126 16.5852C272.206 16.79 272.362 16.9523 272.556 17.0352Z" fill="#201F29"/>
</svg>
